<?xml version="1.0" standalone="no"?>
<!DOCTYPE svg PUBLIC "-//W3C//DTD SVG 1.1//EN" "http://www.w3.org/Graphics/SVG/1.1/DTD/svg11.dtd" >
<svg>
<metadata>
Created by FontForge 20110222 at Sat Mar 10 17:36:02 2012
 By www-data
Sierra Madre (c) (Neale Davidson). 2012. All Rights Reserved
</metadata>
<defs>
<font id="SierraMadre" horiz-adv-x="900" >
  <font-face 
    font-family="Sierra Madre"
    font-weight="400"
    font-stretch="normal"
    units-per-em="2048"
    panose-1="2 0 5 0 0 0 0 0 0 0"
    ascent="1638"
    descent="-410"
    x-height="1200"
    cap-height="1600"
    bbox="-250 -418 1700 2150"
    underline-thickness="150"
    underline-position="-142"
    unicode-range="U+0020-2122"
  />
    <missing-glyph />
    <glyph glyph-name="space" unicode=" " 
 />
    <glyph glyph-name="space" unicode="&#xa0;" 
 />
    <glyph glyph-name="exclam" unicode="!" horiz-adv-x="400" 
d="M100 0q-41 0 -70.5 29.5t-29.5 70.5t29.5 70.5t70.5 29.5t70.5 -29.5t29.5 -70.5t-29.5 -70.5t-70.5 -29.5zM0 1600h200v-1200h-200v1200z" />
    <glyph glyph-name="quotedbl" unicode="&#x22;" horiz-adv-x="700" 
d="M0 1300v200q0 41 29.5 70.5t70.5 29.5t70.5 -29.5t29.5 -70.5v-100l-100 -100h-100zM300 1300v200q0 41 29.5 70.5t70.5 29.5t70.5 -29.5t29.5 -70.5v-100l-100 -100h-100z" />
    <glyph glyph-name="numbersign" unicode="#" 
d="M100 800v200h-100v200h100v200h200v-200h100v200h200v-200h100v-200h-100v-200h100v-200h-100v-200h-200v200h-100v-200h-200v200h-100v200h100zM400 800v200h-100v-200h100z" />
    <glyph glyph-name="dollar" unicode="$" horiz-adv-x="1000" 
d="M596 551q4 -25 4 -51q0 -124 -88 -212q-50 -50 -112 -72v-216h-200v216q-62 22 -112 72q-88 88 -88 212h200q0 -41 29.5 -70.5t70.5 -29.5t70.5 29.5t29.5 70.5t-29 71l-283 317q-67 67 -83 154l-5 8l4 -1q-4 25 -4 51q0 124 88 212q50 50 112 72v216h200v-216
q62 -22 112 -72q88 -88 88 -212h-200q0 41 -29.5 70.5t-70.5 29.5t-70.5 -29.5t-29.5 -70.5t30 -70l282 -318q67 -67 83 -154l5 -8z" />
    <glyph glyph-name="percent" unicode="%" horiz-adv-x="1100" 
d="M400 1300q0 41 -29.5 70.5t-70.5 29.5t-70.5 -29.5t-29.5 -70.5t29.5 -70.5t70.5 -29.5t70.5 29.5t29.5 70.5zM700 300q0 41 -29.5 70.5t-70.5 29.5t-70.5 -29.5t-29.5 -70.5t29.5 -70.5t70.5 -29.5t70.5 29.5t29.5 70.5zM420 1024q-55 -24 -120 -24q-124 0 -212 88
t-88 212t88 212t212 88t212 -88q26 -26 44 -54l44 142h200l-320 -1024q55 24 120 24q124 0 212 -88t88 -212t-88 -212t-212 -88t-212 88q-26 26 -44 54l-44 -142h-200z" />
    <glyph glyph-name="ampersand" unicode="&#x26;" horiz-adv-x="1100" 
d="M500 0q-207 0 -353.5 146.5t-146.5 353.5t147 354q34 34 72 61l-2 2q-117 117 -117 283t117 283t283 117v-200q-83 0 -141.5 -58.5t-58.5 -141.5t58.5 -141.5t141.5 -58.5v-200q-124 0 -212 -88t-88 -212t88 -212t212 -88v400h200v-400h200v-200h-400z" />
    <glyph glyph-name="quotesingle" unicode="'" horiz-adv-x="400" 
d="M0 1300v200q0 41 29.5 70.5t70.5 29.5t70.5 -29.5t29.5 -70.5v-100l-100 -100h-100z" />
    <glyph glyph-name="parenleft" unicode="(" horiz-adv-x="700" 
d="M500 200v-200q-207 0 -353.5 234.5t-146.5 565.5t146.5 565.5t353.5 234.5v-200q-124 0 -212 -175.5t-88 -424.5t88 -424.5t212 -175.5z" />
    <glyph glyph-name="parenright" unicode=")" horiz-adv-x="700" 
d="M212 375.5q88 175.5 88 424.5t-88 424.5t-212 175.5v200q207 0 353.5 -234.5t146.5 -565.5t-146.5 -565.5t-353.5 -234.5v200q124 0 212 175.5z" />
    <glyph glyph-name="asterisk" unicode="*" horiz-adv-x="1100" 
d="M119 1100h-119v200h119q25 62 84 112l2 2l-105 186h250l57 -102q21 2 43 2t43 -2l57 102h250l-105 -186q1 -1 3 -2q58 -50 83 -112h119v-200h-119q-25 -62 -83 -112q-2 -1 -3 -2l105 -186h-250l-57 102q-21 -2 -43 -2t-43 2l-57 -102h-250l105 186l-2 2q-59 50 -84 112z
M520.5 1129.5q29.5 29.5 29.5 70.5t-29.5 70.5t-70.5 29.5t-70.5 -29.5t-29.5 -70.5t29.5 -70.5t70.5 -29.5t70.5 29.5z" />
    <glyph glyph-name="plus" unicode="+" 
d="M250 800h-250v200h250v300h200v-300h250v-200h-250v-300h-200v300z" />
    <glyph glyph-name="comma" unicode="," horiz-adv-x="400" 
d="M0 -100v200q0 41 29.5 70.5t70.5 29.5t70.5 -29.5t29.5 -70.5v-100l-100 -100h-100z" />
    <glyph glyph-name="hyphen" unicode="-" 
d="M0 1000h700v-200h-700v200z" />
    <glyph glyph-name="hyphen" unicode="&#xad;" 
d="M0 1000h700v-200h-700v200z" />
    <glyph glyph-name="period" unicode="." horiz-adv-x="400" 
d="M100 0q-41 0 -70.5 29.5t-29.5 70.5t29.5 70.5t70.5 29.5t70.5 -29.5t29.5 -70.5t-29.5 -70.5t-70.5 -29.5z" />
    <glyph glyph-name="slash" unicode="/" 
d="M500 1600h200l-500 -1600h-200z" />
    <glyph glyph-name="zero" unicode="0" horiz-adv-x="1600" 
d="M1053.5 375.5q146.5 175.5 146.5 424.5t-146.5 424.5t-353.5 175.5t-353.5 -175.5t-146.5 -424.5t146.5 -424.5t353.5 -175.5t353.5 175.5zM1195 1365.5q205 -234.5 205 -565.5t-205 -565.5t-495 -234.5t-495 234.5t-205 565.5t205 565.5t495 234.5t495 -234.5z" />
    <glyph glyph-name="one" unicode="1" horiz-adv-x="500" 
d="M100 1600h200v-1600h-200v1350l-100 -100v250z" />
    <glyph glyph-name="two" unicode="2" 
d="M499 1150q1 38 1 100t-44 106t-106 44t-106 -44t-44 -106h-200q0 145 102.5 247.5t247.5 102.5t247.5 -102.5t102.5 -247.5q0 -113 -50 -200l-359 -850h409v-200h-700z" />
    <glyph glyph-name="three" unicode="3" 
d="M179 937l222 441h-401v200h700l-284 -567q4 -4 9 -8q175 -176 175 -425t-175.5 -424.5t-424.5 -175.5v200q166 0 283 117t117 283t-117 283q-41 41 -87 67z" />
    <glyph glyph-name="four" unicode="4" horiz-adv-x="1000" 
d="M400 1100l-200 -500h200v500zM400 1600h200v-1000h100v-200h-100v-400h-200v400h-400v200z" />
    <glyph glyph-name="five" unicode="5" horiz-adv-x="800" 
d="M226 1158q109 -44 199 -133q175 -176 175 -425t-175.5 -424.5t-424.5 -175.5v200q166 0 283 117t117 283t-117 283t-283 117l100 600h500v-200h-333z" />
    <glyph glyph-name="six" unicode="6" horiz-adv-x="1200" 
d="M712 288q88 88 88 212t-88 212t-212 88t-212 -88t-88 -212t88 -212t212 -88t212 88zM207 906q127 94 293 94q207 0 353.5 -146.5t146.5 -353.5t-146.5 -353.5t-353.5 -146.5t-353.5 146.5t-146.5 353.5v300q0 331 205 565.5t495 234.5v-200q-207 0 -353 -175
q-115 -137 -140 -319z" />
    <glyph glyph-name="seven" unicode="7" 
d="M700 1600l-500 -1600h-200l438 1400h-438v200h700z" />
    <glyph glyph-name="eight" unicode="8" horiz-adv-x="1200" 
d="M712 288q88 88 88 212t-88 212t-212 88t-212 -88t-88 -212t88 -212t212 -88t212 88zM641.5 1058.5q58.5 58.5 58.5 141.5t-58.5 141.5t-141.5 58.5t-141.5 -58.5t-58.5 -141.5t58.5 -141.5t141.5 -58.5t141.5 58.5zM781 915q38 -27 73 -61q146 -147 146 -354
t-146.5 -353.5t-353.5 -146.5t-353.5 146.5t-146.5 353.5t147 354q34 34 72 61l-2 2q-117 117 -117 283t117 283t283 117t283 -117t117 -283t-117 -283z" />
    <glyph glyph-name="nine" unicode="9" horiz-adv-x="1200" 
d="M288 1312q-88 -88 -88 -212t88 -212t212 -88t212 88t88 212t-88 212t-212 88t-212 -88zM793 694q-127 -94 -293 -94q-207 0 -353.5 146.5t-146.5 353.5t146.5 353.5t353.5 146.5t353.5 -146.5t146.5 -353.5v-300q0 -331 -205 -565.5t-495 -234.5v200q207 0 354 176
q114 136 139 318z" />
    <glyph glyph-name="colon" unicode=":" horiz-adv-x="400" 
d="M100 800q-41 0 -70.5 29.5t-29.5 70.5t29.5 70.5t70.5 29.5t70.5 -29.5t29.5 -70.5t-29.5 -70.5t-70.5 -29.5zM104 0q-40 0 -68.5 29.5t-28.5 70.5t28.5 70.5t68.5 29.5q39 0 67.5 -29.5t28.5 -70.5t-28.5 -70.5t-67.5 -29.5z" />
    <glyph glyph-name="semicolon" unicode=";" horiz-adv-x="400" 
d="M100 800q-41 0 -70.5 29.5t-29.5 70.5t29.5 70.5t70.5 29.5t70.5 -29.5t29.5 -70.5t-29.5 -70.5t-70.5 -29.5zM0 -100v200q0 41 29.5 70.5t70.5 29.5t70.5 -29.5t29.5 -70.5v-100l-100 -100h-100z" />
    <glyph glyph-name="semicolon" unicode="&#x37e;" horiz-adv-x="400" 
d="M100 800q-41 0 -70.5 29.5t-29.5 70.5t29.5 70.5t70.5 29.5t70.5 -29.5t29.5 -70.5t-29.5 -70.5t-70.5 -29.5zM0 -100v200q0 41 29.5 70.5t70.5 29.5t70.5 -29.5t29.5 -70.5v-100l-100 -100h-100z" />
    <glyph glyph-name="less" unicode="&#x3c;" 
d="M0 900l450 450h250l-450 -450l450 -450h-250z" />
    <glyph glyph-name="equal" unicode="=" 
d="M700 1200v-200h-700v200h700zM0 800h700v-200h-700v200z" />
    <glyph glyph-name="greater" unicode="&#x3e;" 
d="M250 450h-250l450 450l-450 450h250l450 -450z" />
    <glyph glyph-name="question" unicode="?" horiz-adv-x="700" 
d="M100 0q-41 0 -70.5 29.5t-29.5 70.5t29.5 70.5t70.5 29.5t70.5 -29.5t29.5 -70.5t-29.5 -70.5t-70.5 -29.5zM200 640v-240h-200v400q124 0 212 88t88 212t-88 212t-212 88v200q207 0 353.5 -146.5t146.5 -353.5t-146 -353q-70 -70 -154 -107z" />
    <glyph glyph-name="at" unicode="@" horiz-adv-x="1600" 
d="M841.5 658.5q58.5 58.5 58.5 141.5t-58.5 141.5t-141.5 58.5t-141.5 -58.5t-58.5 -141.5t58.5 -141.5t141.5 -58.5t141.5 58.5zM1200 800q0 249 -146.5 424.5t-353.5 175.5t-353.5 -175.5t-146.5 -424.5t146.5 -424.5t353.5 -175.5t354 176l8 10l133 -152
q-205 -234 -495 -234t-495 234.5t-205 565.5t205 565.5t495 234.5t495 -234.5t205 -565.5v-150q0 -104 -73 -177t-177 -73t-177 73q-9 9 -17 19q-109 -92 -256 -92q-166 0 -283 117t-117 283t117 283t283 117t283 -117t117 -283v-150q0 -21 14.5 -35.5t35.5 -14.5t35.5 14.5
t14.5 35.5v150z" />
    <glyph glyph-name="A" unicode="A" horiz-adv-x="1000" 
d="M700 1300v-700h100v-200h-100v-400h-200v400h-200v-400h-200v400h-100v200h100v700q0 124 88 212t212 88t212 -88t88 -212zM300 1300v-700h200v700q0 41 -29.5 70.5t-70.5 29.5t-70.5 -29.5t-29.5 -70.5z" />
    <glyph glyph-name="B" unicode="B" 
d="M200 1400v-400q83 0 141.5 58.5t58.5 141.5t-58.5 141.5t-141.5 58.5zM393 848q-86 -48 -193 -48v-568q84 29 154 85q146 117 146 283q0 142 -107 248zM0 1600h200q166 0 283 -117t117 -283q0 -121 -62 -215q162 -164 162 -385q0 -249 -205 -424.5t-495 -175.5v1600z" />
    <glyph glyph-name="C" unicode="C" 
d="M700 200v-200q-290 0 -495 234.5t-205 565.5t205 565.5t495 234.5v-200q-207 0 -353.5 -175.5t-146.5 -424.5t146.5 -424.5t353.5 -175.5z" />
    <glyph glyph-name="D" unicode="D" 
d="M200 248q84 44 154 128q146 175 146 424t-146 425q-70 83 -154 127v-1104zM0 1600q290 0 495 -234.5t205 -565.5t-205 -565.5t-495 -234.5v1600z" />
    <glyph glyph-name="E" unicode="E" 
d="M600 1600v-200h-300v-200h400v-200h-400v-800h300v-200h-500v1000h-100v200h100v400h500z" />
    <glyph glyph-name="F" unicode="F" 
d="M600 1600v-200h-300v-200h400v-200h-400v-1000h-200v1000h-100v200h100v400h500z" />
    <glyph glyph-name="G" unicode="G" 
d="M700 0q-290 0 -495 234.5t-205 565.5t205 565.5t495 234.5v-200q-207 0 -353.5 -175.5t-146.5 -424.5t147 -424q69 -84 153 -128v352h200v-600z" />
    <glyph glyph-name="H" unicode="H" horiz-adv-x="1000" 
d="M100 1200v400h200v-400h200v400h200v-400h100v-200h-100v-1000h-200v1000h-200v-1000h-200v1000h-100v200h100z" />
    <glyph glyph-name="I" unicode="I" horiz-adv-x="400" 
d="M0 1600h200v-1600h-200v1600z" />
    <glyph glyph-name="J" unicode="J" horiz-adv-x="800" 
d="M600 600q0 -249 -175.5 -424.5t-424.5 -175.5v200q166 0 283 117t117 283v1000h200v-1000z" />
    <glyph glyph-name="K" unicode="K" 
d="M200 1322l250 278h250l-295 -322l295 -1278h-200l-255 1104l-45 -49v-1055h-200v1600h200v-278z" />
    <glyph glyph-name="L" unicode="L" horiz-adv-x="700" 
d="M200 1600v-1400h300v-200h-500v1600h200z" />
    <glyph glyph-name="M" unicode="M" horiz-adv-x="1200" 
d="M500 1200l300 400h200v-1600h-200v1300l-300 -400l-300 400v-1300h-200v1600h200z" />
    <glyph glyph-name="N" unicode="N" 
d="M200 1300v-1300h-200v1600h200l300 -400v400h200v-1600h-200v900z" />
    <glyph glyph-name="O" unicode="O" horiz-adv-x="1600" 
d="M1053.5 375.5q146.5 175.5 146.5 424.5t-146.5 424.5t-353.5 175.5t-353.5 -175.5t-146.5 -424.5t146.5 -424.5t353.5 -175.5t353.5 175.5zM1195 1365.5q205 -234.5 205 -565.5t-205 -565.5t-495 -234.5t-495 234.5t-205 565.5t205 565.5t495 234.5t495 -234.5z" />
    <glyph glyph-name="P" unicode="P" 
d="M0 1600q290 0 495 -175.5t205 -424.5t-205 -424q-130 -112 -295 -153v-423h-200v1600zM200 1368v-736q84 29 154 85q146 117 146 283t-146 283q-70 56 -154 85z" />
    <glyph glyph-name="Q" unicode="Q" horiz-adv-x="1600" 
d="M1047 103q-155 -103 -347 -103q-290 0 -495 234.5t-205 565.5t205 565.5t495 234.5t495 -234.5t205 -565.5t-205 -565l-14 -16l219 -219h-250zM901 249l-301 301h250l190 -190l14 16q146 175 146 424t-146.5 424.5t-353.5 175.5t-353.5 -175.5t-146.5 -424.5
t146.5 -424.5t353.5 -175.5q109 0 201 49z" />
    <glyph glyph-name="R" unicode="R" 
d="M200 1368v-736q84 29 154 85q146 117 146 283t-146 283q-70 56 -154 85zM200 400v-400h-200v1600q290 0 495 -175.5t205 -424.5t-205 -424q-71 -61 -151 -101l356 -475h-200z" />
    <glyph glyph-name="S" unicode="S" horiz-adv-x="700" 
d="M350 825q150 -150 150 -325q0 -207 -146.5 -353.5t-353.5 -146.5v200q124 0 212 88t88 212q0 117 -79 203l-71 72q-150 150 -150 325q0 207 146.5 353.5t353.5 146.5v-200q-124 0 -212 -88t-88 -212q0 -117 79 -203z" />
    <glyph glyph-name="T" unicode="T" horiz-adv-x="800" 
d="M600 1600v-200h-200v-1400h-200v1400h-200v200h600z" />
    <glyph glyph-name="U" unicode="U" horiz-adv-x="800" 
d="M400 1600h200v-1300q0 -124 -88 -212t-212 -88t-212 88t-88 212v1300h200v-1300q0 -41 29.5 -70.5t70.5 -29.5t70.5 29.5t29.5 70.5v1300z" />
    <glyph glyph-name="V" unicode="V" 
d="M250 0l-250 1600h200l150 -960l150 960h200l-250 -1600h-200z" />
    <glyph glyph-name="W" unicode="W" horiz-adv-x="1400" 
d="M600 960l-150 -960h-200l-250 1600h200l150 -960l150 960h200l150 -960l150 960h200l-250 -1600h-200z" />
    <glyph glyph-name="X" unicode="X" 
d="M250 800l-250 800h200l150 -480l150 480h200l-250 -800l250 -800h-200l-150 480l-150 -480h-200z" />
    <glyph glyph-name="Y" unicode="Y" horiz-adv-x="1000" 
d="M500 1000v-1000h-200v1000l-300 600h200l200 -400l200 400h200z" />
    <glyph glyph-name="Z" unicode="Z" 
d="M263 200h437v-200h-700l438 1400h-438v200h700z" />
    <glyph glyph-name="bracketleft" unicode="[" horiz-adv-x="700" 
d="M500 1600v-200h-300v-1200h300v-200h-500v1600h500z" />
    <glyph glyph-name="backslash" unicode="\" 
d="M0 1600h200l500 -1600h-200z" />
    <glyph glyph-name="bracketright" unicode="]" horiz-adv-x="700" 
d="M500 1600v-1600h-500v200h300v1200h-300v200h500z" />
    <glyph glyph-name="asciicircum" unicode="^" 
d="M350 1950l-100 -200h-250l200 400h300l200 -400h-250z" />
    <glyph glyph-name="underscore" unicode="_" 
d="M0 0h700v-200h-700v200z" />
    <glyph glyph-name="grave" unicode="`" 
d="M0 2150h300l400 -400h-300z" />
    <glyph glyph-name="a" unicode="a" 
d="M500 594q-103 -12 -183 -52q-117 -59 -117 -142t117 -141q80 -41 183 -53v388zM160 1072q7 6 16 11q175 117 424 117h100v-1200h-100q-249 0 -424.5 117t-175.5 283t176 283q139 93 324 112v199q-101 -12 -180 -50z" />
    <glyph glyph-name="b" unicode="b" 
d="M0 1600h200v-423q165 -41 295 -152q205 -176 205 -425t-205 -424.5t-495 -175.5v1600zM354 317q146 117 146 283t-146 283q-70 56 -154 85v-736q84 29 154 85z" />
    <glyph glyph-name="c" unicode="c" horiz-adv-x="800" 
d="M600 200v-200q-249 0 -424.5 175.5t-175.5 424.5t175.5 424.5t424.5 175.5v-200q-166 0 -283 -117t-117 -283t117 -283t283 -117z" />
    <glyph glyph-name="d" unicode="d" 
d="M700 0q-290 0 -495 175.5t-205 424.5t205 425q130 111 295 152v423h200v-1600zM500 232v736q-84 -29 -153 -85q-147 -117 -147 -283t147 -283q69 -56 153 -85z" />
    <glyph glyph-name="e" unicode="e" horiz-adv-x="1400" 
d="M212 700h776q-25 103 -105 183q-117 117 -283 117t-283 -117q-80 -80 -105 -183zM0 600q0 249 175.5 424.5t424.5 175.5t424.5 -175.5t175.5 -424.5v-100h-990q25 -103 105 -183q117 -117 283 -117t283 117l141 -142q-175 -175 -424 -175t-424 176q-139 139 -174 324v100
z" />
    <glyph glyph-name="f" unicode="f" horiz-adv-x="800" 
d="M600 1200v-200h-200v-1000h-200v1000h-200v200h200v50q0 145 102.5 247.5t247.5 102.5v-200q-62 0 -106 -44t-44 -106v-50h200z" />
    <glyph glyph-name="g" unicode="g" 
d="M347 883q-147 -117 -147 -283t147 -283q69 -56 153 -85v736q-84 -29 -153 -85zM500 -50v73q-165 41 -295 153q-205 175 -205 424t205 424.5t495 175.5v-1250q0 -145 -102.5 -247.5t-247.5 -102.5t-247.5 102.5t-102.5 247.5h200q0 -62 44 -106t106 -44t106 44t44 106z
" />
    <glyph glyph-name="h" unicode="h" 
d="M500 600q0 166 -146 283q-70 56 -154 85v-969l-200 1v1600h200v-423q165 -41 295 -152q205 -176 205 -425v-600h-200v600z" />
    <glyph glyph-name="i" unicode="i" horiz-adv-x="400" 
d="M200 -1l-200 1v1200h200v-1201zM170.5 1570.5q29.5 -29.5 29.5 -70.5t-29.5 -70.5t-70.5 -29.5t-70.5 29.5t-29.5 70.5t29.5 70.5t70.5 29.5t70.5 -29.5z" />
    <glyph glyph-name="j" unicode="j" horiz-adv-x="550" 
d="M320.5 1570.5q29.5 -29.5 29.5 -70.5t-29.5 -70.5t-70.5 -29.5t-70.5 29.5t-29.5 70.5t29.5 70.5t70.5 29.5t70.5 -29.5zM0 -200q62 0 106 44t44 106v1250h200v-1250q0 -145 -102.5 -247.5t-247.5 -102.5v200z" />
    <glyph glyph-name="k" unicode="k" 
d="M350 850l350 -850h-200l-292 708l-8 -8v-701l-200 1v1600h200v-700l300 300h200z" />
    <glyph glyph-name="l" unicode="l" horiz-adv-x="400" 
d="M0 1600h200v-1600h-200v1600z" />
    <glyph glyph-name="m" unicode="m" horiz-adv-x="1400" 
d="M600 912q43 60 105 113q205 175 495 175v-1200h-200v968q-84 -29 -154 -85q-146 -117 -146 -283v-200h-200v200q0 166 -146 283q-70 56 -154 85v-968h-200v1200q290 0 495 -175q62 -53 105 -113z" />
    <glyph glyph-name="n" unicode="n" 
d="M500 600q0 166 -146 283q-70 56 -154 85v-968h-200v1200q290 0 495 -175.5t205 -424.5v-600h-200v600z" />
    <glyph glyph-name="o" unicode="o" horiz-adv-x="1400" 
d="M600 0q-249 0 -424.5 175.5t-175.5 424.5t175.5 424.5t424.5 175.5t424.5 -175.5t175.5 -424.5t-175.5 -424.5t-424.5 -175.5zM883 317q117 117 117 283t-117 283t-283 117t-283 -117t-117 -283t117 -283t283 -117t283 117z" />
    <glyph glyph-name="p" unicode="p" 
d="M0 1200q290 0 495 -175.5t205 -424.5t-205 -424q-130 -112 -295 -153v-423h-200v1600zM200 968v-736q84 29 154 85q146 117 146 283t-146 283q-70 56 -154 85z" />
    <glyph glyph-name="q" unicode="q" 
d="M700 -400h-200v423q-165 41 -295 153q-205 175 -205 424t205 424.5t495 175.5v-1600zM347 883q-147 -117 -147 -283t147 -283q69 -56 153 -85v736q-84 -29 -153 -85z" />
    <glyph glyph-name="r" unicode="r" horiz-adv-x="750" 
d="M396 846q-19 19 -42 37q-70 56 -154 85v-968h-200v1200q290 0 495 -175q22 -19 41 -39z" />
    <glyph glyph-name="s" unicode="s" horiz-adv-x="550" 
d="M75 600q-75 150 -75 250q0 145 102.5 247.5t247.5 102.5v-200q-62 0 -106 -44t-44 -106t75 -250q75 -150 75 -250q0 -145 -102.5 -247.5t-247.5 -102.5v200q62 0 106 44t44 106t-75 250z" />
    <glyph glyph-name="t" unicode="t" horiz-adv-x="800" 
d="M400 1000v-650q0 -62 44 -106t106 -44v-200q-145 0 -247.5 102.5t-102.5 247.5v650h-200v200h200v300h200v-300h200v-200h-200z" />
    <glyph glyph-name="u" unicode="u" horiz-adv-x="800" 
d="M400 1200h200v-900q0 -124 -88 -212t-212 -88t-212 88t-88 212v900h200v-900q0 -41 29.5 -70.5t70.5 -29.5t70.5 29.5t29.5 70.5v900z" />
    <glyph glyph-name="v" unicode="v" 
d="M250 0l-250 1200h200l150 -720l150 720h200l-250 -1200h-200z" />
    <glyph glyph-name="w" unicode="w" horiz-adv-x="1400" 
d="M600 720l-150 -720h-200l-250 1200h200l150 -720l150 720h200l150 -720l150 720h200l-250 -1200h-200z" />
    <glyph glyph-name="x" unicode="x" 
d="M250 600l-250 600h200l150 -360l150 360h200l-250 -600l250 -600h-200l-150 360l-150 -360h-200z" />
    <glyph glyph-name="y" unicode="y" 
d="M200 600q0 -166 147 -283q69 -56 153 -85v968h200v-1250q0 -145 -102.5 -247.5t-247.5 -102.5t-247.5 102.5t-102.5 247.5h200q0 -62 44 -106t106 -44t106 44t44 106v73q-165 41 -295 153q-205 175 -205 424v600h200v-600z" />
    <glyph glyph-name="z" unicode="z" 
d="M417 1000h-417v200h700l-417 -1000h417v-200h-700z" />
    <glyph glyph-name="braceleft" unicode="{" horiz-adv-x="700" 
d="M400 1600h100v-200h-100q-21 0 -35.5 -14.5t-14.5 -35.5v-100q0 -85 -49 -150q49 -65 49 -150v-700q0 -21 14.5 -35.5t35.5 -14.5h100v-200h-100q-104 0 -177 73t-73 177v700q0 21 -14.5 35.5t-35.5 14.5h-100v200h100q21 0 35.5 14.5t14.5 35.5v100q0 104 73 177t177 73
z" />
    <glyph glyph-name="bar" unicode="|" horiz-adv-x="400" 
d="M0 1800h200v-2000h-200v2000z" />
    <glyph glyph-name="braceright" unicode="}" horiz-adv-x="700" 
d="M277 1527q73 -73 73 -177v-100q0 -21 14.5 -35.5t35.5 -14.5h100v-200h-100q-21 0 -35.5 -14.5t-14.5 -35.5v-700q0 -104 -73 -177t-177 -73h-100v200h100q21 0 35.5 14.5t14.5 35.5v700q0 85 49 150q-49 65 -49 150v100q0 21 -14.5 35.5t-35.5 14.5h-100v200h100
q104 0 177 -73z" />
    <glyph glyph-name="asciitilde" unicode="~" 
d="M700 2150v-200q-50 -100 -100 -125t-100 -25t-150 50t-150 50t-100 -25t-100 -125v200q50 100 100 125t100 25t150 -50t150 -50t100 25t100 125z" />
    <glyph glyph-name="exclamdown" unicode="&#xa1;" horiz-adv-x="400" 
d="M100 1600q41 0 70.5 -29.5t29.5 -70.5t-29.5 -70.5t-70.5 -29.5t-70.5 29.5t-29.5 70.5t29.5 70.5t70.5 29.5zM200 0h-200v1200h200v-1200z" />
    <glyph glyph-name="cent" unicode="&#xa2;" horiz-adv-x="800" 
d="M300 1222v178h200v-108q48 8 100 8v-200q-166 0 -283 -117t-117 -283t117 -283t283 -117v-200q-52 0 -100 8v-108h-200v178q-66 39 -124 98q-176 175 -176 424t176 425q58 58 124 97z" />
    <glyph glyph-name="sterling" unicode="&#xa3;" horiz-adv-x="1000" 
d="M100 200v200h-100v200h100v700q0 124 88 212t212 88t212 -88t88 -212h-200q0 41 -29.5 70.5t-70.5 29.5t-70.5 -29.5t-29.5 -70.5v-700h500v-200h-500v-200h400v-200h-700v200h100z" />
    <glyph glyph-name="currency" unicode="&#xa4;" horiz-adv-x="1014" 
d="M350 560q41 -40 99 -57q29 -8 58 -8t58 8q58 17 99 57q40 41 57 99q9 29 9 58t-9 58q-17 58 -57 99q-41 40 -100 57q-29 8 -58 8t-58 -9q-58 -17 -98 -56q-39 -40 -56 -98q-10 -30 -10 -60q0 -28 9 -56q16 -59 57 -100zM240 903l-118 118l80 81l118 -118q44 30 99 46
q44 14 89 14q41 0 83 -12q57 -17 102 -48l118 118l80 -81l-117 -117q31 -46 48 -102q12 -42 12 -85q0 -42 -12 -85q-17 -56 -48 -102l117 -117l-80 -81l-118 118q-45 -32 -101 -48q-42 -12 -85 -12q-42 0 -85 12q-57 16 -102 48l-118 -118l-80 81l118 117q-32 46 -48 103
q-12 42 -12 84q0 44 13 87q16 55 47 99z" />
    <glyph glyph-name="yen" unicode="&#xa5;" horiz-adv-x="1000" 
d="M300 1000l-300 600h200l200 -400l200 400h200l-300 -600h300v-200h-300v-200h300v-200h-300v-400h-200v400h-300v200h300v200h-300v200h300z" />
    <glyph glyph-name="brokenbar" unicode="&#xa6;" horiz-adv-x="1014" 
d="M427 371h160v-789h-160v789zM427 1578h160v-789h-160v789z" />
    <glyph glyph-name="section" unicode="&#xa7;" horiz-adv-x="1014" 
d="M545 321q56 16 97 53q73 65 73 166q0 5 -1 10h-2q-1 14 -4 27q-22 61 -113 127q-59 29 -126 29q-78 0 -125 -44.5t-47 -117.5q0 -123 248 -250zM466 -346q113 6 185 69q72 64 72 165q0 125 -316 276q-123 64 -175.5 137t-52.5 177q0 148 89 237q67 65 170 82l-40 19
q-123 64 -175.5 137t-52.5 177q0 148 89 237q82 79 216 86q8 1 17 1h3q66 0 163 -16.5t97 -41.5v-194h-51q-5 81 -80 132q-70 47 -149 51h-15q-78 0 -125 -44.5t-47 -117.5q0 -132 287 -269q149 -67 204.5 -143.5t55.5 -187.5q0 -171 -101 -282q-47 -39 -99 -64
q108 -56 154 -118q55 -77 55 -187q0 -171 -101 -283q-124 -102 -277 -105v1q-6 -1 -13 -1h-3q-66 0 -163 16.5t-97 41.5v194h51q5 -81 80 -132q68 -45 145 -50z" />
    <glyph glyph-name="dieresis" unicode="&#xa8;" horiz-adv-x="800" 
d="M100 1800q-41 0 -70.5 29.5t-29.5 70.5t29.5 70.5t70.5 29.5t70.5 -29.5t29.5 -70.5t-29.5 -70.5t-70.5 -29.5zM500 1800q-41 0 -70.5 29.5t-29.5 70.5t29.5 70.5t70.5 29.5t70.5 -29.5t29.5 -70.5t-29.5 -70.5t-70.5 -29.5z" />
    <glyph glyph-name="copyright" unicode="&#xa9;" horiz-adv-x="1674" 
d="M840 1456q145 0 280 -56.5t239 -160.5q102 -101 158.5 -238t56.5 -283q0 -147 -56.5 -282t-162.5 -240q-105 -105 -239 -159.5t-283 -54.5q-146 0 -278 55.5t-238 160.5q-106 104 -161.5 237.5t-55.5 282.5q0 148 55.5 283t159.5 238q102 104 238.5 160.5t286.5 56.5z
M357 1197q-95 -96 -146 -219.5t-51 -259.5q0 -137 51 -259t148 -219q98 -96 219 -147t256 -51q137 0 259.5 50.5t219.5 145.5q97 98 149 221.5t52 258.5q0 134 -52 259.5t-145 219.5q-96 96 -220 147.5t-258 51.5q-137 0 -262 -51.5t-220 -147.5zM865 223q-142 0 -264 68
t-186 185t-64 243t65.5 244t187.5 184.5t254 66.5q38 0 75 -6.5t76 -20.5q5 -1 9 -1q19 0 26 30h42l72 -198h-44q-52 94 -131 124q-72 26 -147 26h-15q-86 -8 -166.5 -71t-121.5 -177q-33 -90 -33 -184q0 -25 2 -50q11 -121 69.5 -224t149.5 -152q72 -40 166 -42
q124 0 194 56t70 126h53v-100q0 -46 -96.5 -86.5t-242.5 -40.5z" />
    <glyph glyph-name="ordfeminine" unicode="&#xaa;" horiz-adv-x="648" 
 />
    <glyph glyph-name="guillemotleft" unicode="&#xab;" horiz-adv-x="944" 
d="M174 479l342 303h14v-37l-205 -266l205 -266v-37h-14zM487 479l342 303h14v-37l-205 -266l205 -266v-37h-14z" />
    <glyph glyph-name="logicalnot" unicode="&#xac;" horiz-adv-x="1014" 
d="M87 767h840v-491l-1 -1h-98v392h-741v100z" />
    <glyph glyph-name="registered" unicode="&#xae;" horiz-adv-x="1674" 
d="M751 1099v-374l3 -8q23 -56 56 -81q29 -22 56 -22h6q31 4 61.5 38.5t46.5 97.5q13 50 13 103q0 13 -1 27q-4 67 -28 124.5t-56.5 76t-63.5 18.5h-93zM984 576l82 -116q100 -141 150 -141h34v-50h-346v50h45q30 0 30 22q0 29 -69 114l-75 102q-42 0 -84 42v-159
q0 -121 36 -121h53v-50h-316v50h43q37 0 37 121v538q0 121 -37 121h-43v70h356q64 -1 125 -42q60 -41 92.5 -114t32.5 -152q0 -78 -32 -150.5t-114 -134.5zM840 1456q145 0 280 -56.5t239 -160.5q102 -101 158.5 -238t56.5 -283q0 -147 -56.5 -282t-162.5 -240
q-105 -105 -239 -159.5t-283 -54.5q-146 0 -278 55.5t-238 160.5q-106 104 -161.5 237.5t-55.5 282.5q0 148 55.5 283t159.5 238q102 104 238.5 160.5t286.5 56.5zM357 1197q-95 -96 -146 -219.5t-51 -259.5q0 -137 51 -259t148 -219q98 -96 219 -147t256 -51
q137 0 259.5 50.5t219.5 145.5q97 98 149 221.5t52 258.5q0 134 -52 259.5t-145 219.5q-96 96 -220 147.5t-258 51.5q-137 0 -262 -51.5t-220 -147.5z" />
    <glyph glyph-name="macron" unicode="&#xaf;" horiz-adv-x="670" 
 />
    <glyph glyph-name="degree" unicode="&#xb0;" horiz-adv-x="674" 
d="M339 1372q-86 0 -147.5 -61t-61.5 -148t61 -147t148 -60t147 60t60 147t-60.5 148t-146.5 61zM339 1442q115 0 196 -81.5t81 -196.5q0 -114 -82 -196t-197 -82q-117 0 -197 81t-80 197t81.5 197t197.5 81z" />
    <glyph glyph-name="plusminus" unicode="&#xb1;" horiz-adv-x="1014" 
 />
    <glyph glyph-name="uni00B2" unicode="&#xb2;" horiz-adv-x="1014" 
 />
    <glyph glyph-name="uni00B3" unicode="&#xb3;" horiz-adv-x="1014" 
 />
    <glyph glyph-name="acute" unicode="&#xb4;" 
d="M300 1750h-300l400 400h300z" />
    <glyph glyph-name="mu" unicode="&#xb5;" horiz-adv-x="800" 
d="M0 1200h200v-900q0 -41 29.5 -70.5t70.5 -29.5t70.5 29.5t29.5 70.5v900h200v-900q0 -124 -88 -212t-212 -88q-53 0 -100 16v-416h-200v1600z" />
    <glyph glyph-name="paragraph" unicode="&#xb6;" horiz-adv-x="1024" 
d="M929 1435v-70h-127v-1365h-82v1365h-166v-1365h-84v738q-174 8 -275.5 102.5t-101.5 245.5q0 157 107.5 253t285.5 96h443z" />
    <glyph glyph-name="periodcentered" unicode="&#xb7;" horiz-adv-x="400" 
d="M100 800q-41 0 -70.5 29.5t-29.5 70.5t29.5 70.5t70.5 29.5t70.5 -29.5t29.5 -70.5t-29.5 -70.5t-70.5 -29.5z" />
    <glyph glyph-name="periodcentered" unicode="&#x2219;" horiz-adv-x="400" 
d="M100 800q-41 0 -70.5 29.5t-29.5 70.5t29.5 70.5t70.5 29.5t70.5 -29.5t29.5 -70.5t-29.5 -70.5t-70.5 -29.5z" />
    <glyph glyph-name="cedilla" unicode="&#xb8;" horiz-adv-x="550" 
d="M0 -200q62 0 106 44t44 106v150h200v-150q0 -145 -102.5 -247.5t-247.5 -102.5v200z" />
    <glyph glyph-name="uni00B9" unicode="&#xb9;" horiz-adv-x="1014" 
 />
    <glyph glyph-name="ordmasculine" unicode="&#xba;" horiz-adv-x="718" 
 />
    <glyph glyph-name="guillemotright" unicode="&#xbb;" horiz-adv-x="944" 
d="M115 176h-14v37l205 266l-205 266v37h14l342 -303zM428 176h-14v37l205 266l-205 266v37h14l342 -303z" />
    <glyph glyph-name="onequarter" unicode="&#xbc;" horiz-adv-x="1708" 
 />
    <glyph glyph-name="onehalf" unicode="&#xbd;" horiz-adv-x="1964" 
 />
    <glyph glyph-name="threequarters" unicode="&#xbe;" horiz-adv-x="1708" 
 />
    <glyph glyph-name="questiondown" unicode="&#xbf;" horiz-adv-x="700" 
d="M400 1600q41 0 70.5 -29.5t29.5 -70.5t-29.5 -70.5t-70.5 -29.5t-70.5 29.5t-29.5 70.5t29.5 70.5t70.5 29.5zM300 960v240h200v-400q-124 0 -212 -88t-88 -212t88 -212t212 -88v-200q-207 0 -353.5 146.5t-146.5 353.5t147 354q69 69 153 106z" />
    <glyph glyph-name="Agrave" unicode="&#xc0;" horiz-adv-x="1000" 
d="M700 1300v-700h100v-200h-100v-400h-200v400h-200v-400h-200v400h-100v200h100v700q0 124 88 212t212 88t212 -88t88 -212zM300 1300v-700h200v700q0 41 -29.5 70.5t-70.5 29.5t-70.5 -29.5t-29.5 -70.5zM50 2150h300l400 -400h-300z" />
    <glyph glyph-name="Aacute" unicode="&#xc1;" horiz-adv-x="1000" 
d="M700 1300v-700h100v-200h-100v-400h-200v400h-200v-400h-200v400h-100v200h100v700q0 124 88 212t212 88t212 -88t88 -212zM300 1300v-700h200v700q0 41 -29.5 70.5t-70.5 29.5t-70.5 -29.5t-29.5 -70.5zM350 1750h-300l400 400h300z" />
    <glyph glyph-name="Acircumflex" unicode="&#xc2;" horiz-adv-x="1000" 
d="M700 1300v-700h100v-200h-100v-400h-200v400h-200v-400h-200v400h-100v200h100v700q0 124 88 212t212 88t212 -88t88 -212zM300 1300v-700h200v700q0 41 -29.5 70.5t-70.5 29.5t-70.5 -29.5t-29.5 -70.5zM400 1950l-100 -200h-250l200 400h300l200 -400h-250z" />
    <glyph glyph-name="Atilde" unicode="&#xc3;" horiz-adv-x="1000" 
d="M700 1300v-700h100v-200h-100v-400h-200v400h-200v-400h-200v400h-100v200h100v700q0 124 88 212t212 88t212 -88t88 -212zM300 1300v-700h200v700q0 41 -29.5 70.5t-70.5 29.5t-70.5 -29.5t-29.5 -70.5zM750 2150v-200q-50 -100 -100 -125t-100 -25t-150 50t-150 50
t-100 -25t-100 -125v200q50 100 100 125t100 25t150 -50t150 -50t100 25t100 125z" />
    <glyph glyph-name="Adieresis" unicode="&#xc4;" horiz-adv-x="1000" 
d="M700 1300v-700h100v-200h-100v-400h-200v400h-200v-400h-200v400h-100v200h100v700q0 124 88 212t212 88t212 -88t88 -212zM300 1300v-700h200v700q0 41 -29.5 70.5t-70.5 29.5t-70.5 -29.5t-29.5 -70.5zM200 1800q-41 0 -70.5 29.5t-29.5 70.5t29.5 70.5t70.5 29.5
t70.5 -29.5t29.5 -70.5t-29.5 -70.5t-70.5 -29.5zM600 1800q-41 0 -70.5 29.5t-29.5 70.5t29.5 70.5t70.5 29.5t70.5 -29.5t29.5 -70.5t-29.5 -70.5t-70.5 -29.5z" />
    <glyph glyph-name="Aring" unicode="&#xc5;" horiz-adv-x="1000" 
d="M700 1300v-700h100v-200h-100v-400h-200v400h-200v-400h-200v400h-100v200h100v700q0 124 88 212t212 88t212 -88t88 -212zM300 1300v-700h200v700q0 41 -29.5 70.5t-70.5 29.5t-70.5 -29.5t-29.5 -70.5zM400 1800q-41 0 -70.5 29.5t-29.5 70.5t29.5 70.5t70.5 29.5
t70.5 -29.5t29.5 -70.5t-29.5 -70.5t-70.5 -29.5z" />
    <glyph glyph-name="AE" unicode="&#xc6;" horiz-adv-x="1300" 
d="M300 1300v-700h200v700q0 41 -29.5 70.5t-70.5 29.5t-70.5 -29.5t-29.5 -70.5zM300 400v-400h-200v400h-100v200h100v700q0 124 88 212t212 88q53 0 100 -16v16h500v-200h-300v-800h400v-200h-400v-200h300v-200h-500v400h-200z" />
    <glyph glyph-name="Ccedilla" unicode="&#xc7;" 
d="M400 75q-106 57 -195 160q-205 234 -205 565t205 565.5t495 234.5v-200q-207 0 -353.5 -175.5t-146.5 -424.5t146.5 -424.5t353.5 -175.5v-200q-51 0 -100 7v-57q0 -145 -102.5 -247.5t-247.5 -102.5v200q62 0 106 44t44 106v125z" />
    <glyph glyph-name="Egrave" unicode="&#xc8;" 
d="M600 1600v-200h-300v-200h400v-200h-400v-800h300v-200h-500v1000h-100v200h100v400h500zM0 2150h300l400 -400h-300z" />
    <glyph glyph-name="Eacute" unicode="&#xc9;" 
d="M600 1600v-200h-300v-200h400v-200h-400v-800h300v-200h-500v1000h-100v200h100v400h500zM300 1750h-300l400 400h300z" />
    <glyph glyph-name="Ecircumflex" unicode="&#xca;" 
d="M600 1600v-200h-300v-200h400v-200h-400v-800h300v-200h-500v1000h-100v200h100v400h500zM350 1950l-100 -200h-250l200 400h300l200 -400h-250z" />
    <glyph glyph-name="Edieresis" unicode="&#xcb;" 
d="M600 1600v-200h-300v-200h400v-200h-400v-800h300v-200h-500v1000h-100v200h100v400h500zM150 1800q-41 0 -70.5 29.5t-29.5 70.5t29.5 70.5t70.5 29.5t70.5 -29.5t29.5 -70.5t-29.5 -70.5t-70.5 -29.5zM550 1800q-41 0 -70.5 29.5t-29.5 70.5t29.5 70.5t70.5 29.5
t70.5 -29.5t29.5 -70.5t-29.5 -70.5t-70.5 -29.5z" />
    <glyph glyph-name="Igrave" unicode="&#xcc;" horiz-adv-x="400" 
d="M0 1600h200v-1600h-200v1600zM-250 2150h300l400 -400h-300z" />
    <glyph glyph-name="Iacute" unicode="&#xcd;" horiz-adv-x="400" 
d="M0 1600h200v-1600h-200v1600zM50 1750h-300l400 400h300z" />
    <glyph glyph-name="Icircumflex" unicode="&#xce;" horiz-adv-x="400" 
d="M0 1600h200v-1600h-200v1600zM100 1950l-100 -200h-250l200 400h300l200 -400h-250z" />
    <glyph glyph-name="Idieresis" unicode="&#xcf;" horiz-adv-x="400" 
d="M0 1600h200v-1600h-200v1600zM-100 1800q-41 0 -70.5 29.5t-29.5 70.5t29.5 70.5t70.5 29.5t70.5 -29.5t29.5 -70.5t-29.5 -70.5t-70.5 -29.5zM300 1800q-41 0 -70.5 29.5t-29.5 70.5t29.5 70.5t70.5 29.5t70.5 -29.5t29.5 -70.5t-29.5 -70.5t-70.5 -29.5z" />
    <glyph glyph-name="Eth" unicode="&#xd0;" horiz-adv-x="1000" 
d="M100 1200v400q290 0 495 -234.5t205 -565.5t-205 -565.5t-495 -234.5v1000h-100v200h100zM300 1200h100v-200h-100v-752q84 44 154 128q146 175 146 424t-146 425q-70 83 -154 127v-152z" />
    <glyph glyph-name="Ntilde" unicode="&#xd1;" 
d="M200 1300v-1300h-200v1600h200l300 -400v400h200v-1600h-200v900zM700 2150v-200q-50 -100 -100 -125t-100 -25t-150 50t-150 50t-100 -25t-100 -125v200q50 100 100 125t100 25t150 -50t150 -50t100 25t100 125z" />
    <glyph glyph-name="Ograve" unicode="&#xd2;" horiz-adv-x="1600" 
d="M1053.5 375.5q146.5 175.5 146.5 424.5t-146.5 424.5t-353.5 175.5t-353.5 -175.5t-146.5 -424.5t146.5 -424.5t353.5 -175.5t353.5 175.5zM1195 1365.5q205 -234.5 205 -565.5t-205 -565.5t-495 -234.5t-495 234.5t-205 565.5t205 565.5t495 234.5t495 -234.5zM350 2150
h300l400 -400h-300z" />
    <glyph glyph-name="Oacute" unicode="&#xd3;" horiz-adv-x="1600" 
d="M1053.5 375.5q146.5 175.5 146.5 424.5t-146.5 424.5t-353.5 175.5t-353.5 -175.5t-146.5 -424.5t146.5 -424.5t353.5 -175.5t353.5 175.5zM1195 1365.5q205 -234.5 205 -565.5t-205 -565.5t-495 -234.5t-495 234.5t-205 565.5t205 565.5t495 234.5t495 -234.5zM650 1750
h-300l400 400h300z" />
    <glyph glyph-name="Ocircumflex" unicode="&#xd4;" horiz-adv-x="1600" 
d="M1053.5 375.5q146.5 175.5 146.5 424.5t-146.5 424.5t-353.5 175.5t-353.5 -175.5t-146.5 -424.5t146.5 -424.5t353.5 -175.5t353.5 175.5zM1195 1365.5q205 -234.5 205 -565.5t-205 -565.5t-495 -234.5t-495 234.5t-205 565.5t205 565.5t495 234.5t495 -234.5zM700 1950
l-100 -200h-250l200 400h300l200 -400h-250z" />
    <glyph glyph-name="Otilde" unicode="&#xd5;" horiz-adv-x="1600" 
d="M1053.5 375.5q146.5 175.5 146.5 424.5t-146.5 424.5t-353.5 175.5t-353.5 -175.5t-146.5 -424.5t146.5 -424.5t353.5 -175.5t353.5 175.5zM1195 1365.5q205 -234.5 205 -565.5t-205 -565.5t-495 -234.5t-495 234.5t-205 565.5t205 565.5t495 234.5t495 -234.5z
M1050 2150v-200q-50 -100 -100 -125t-100 -25t-150 50t-150 50t-100 -25t-100 -125v200q50 100 100 125t100 25t150 -50t150 -50t100 25t100 125z" />
    <glyph glyph-name="Odieresis" unicode="&#xd6;" horiz-adv-x="1600" 
d="M1053.5 375.5q146.5 175.5 146.5 424.5t-146.5 424.5t-353.5 175.5t-353.5 -175.5t-146.5 -424.5t146.5 -424.5t353.5 -175.5t353.5 175.5zM1195 1365.5q205 -234.5 205 -565.5t-205 -565.5t-495 -234.5t-495 234.5t-205 565.5t205 565.5t495 234.5t495 -234.5zM500 1800
q-41 0 -70.5 29.5t-29.5 70.5t29.5 70.5t70.5 29.5t70.5 -29.5t29.5 -70.5t-29.5 -70.5t-70.5 -29.5zM900 1800q-41 0 -70.5 29.5t-29.5 70.5t29.5 70.5t70.5 29.5t70.5 -29.5t29.5 -70.5t-29.5 -70.5t-70.5 -29.5z" />
    <glyph glyph-name="multiply" unicode="&#xd7;" horiz-adv-x="1014" 
d="M507 618l-247 -247l-99 99l247 247l-247 248l99 98l247 -247l248 247l98 -99l-247 -247l247 -247l-99 -99z" />
    <glyph glyph-name="Oslash" unicode="&#xd8;" horiz-adv-x="1600" 
d="M1066 1484l84 116h250l-185 -258q185 -227 185 -542q0 -331 -205 -565.5t-495 -234.5q-204 0 -366 116l-84 -116h-250l185 258q-185 227 -185 542q0 331 205 565.5t495 234.5q204 0 366 -116zM307 428l643 894q-112 78 -250 78q-207 0 -353.5 -175.5t-146.5 -424.5
q0 -213 107 -372zM1093 1172l-643 -894q112 -78 250 -78q207 0 353.5 175.5t146.5 424.5q0 213 -107 372z" />
    <glyph glyph-name="Ugrave" unicode="&#xd9;" horiz-adv-x="800" 
d="M400 1600h200v-1300q0 -124 -88 -212t-212 -88t-212 88t-88 212v1300h200v-1300q0 -41 29.5 -70.5t70.5 -29.5t70.5 29.5t29.5 70.5v1300zM-50 2150h300l400 -400h-300z" />
    <glyph glyph-name="Uacute" unicode="&#xda;" horiz-adv-x="800" 
d="M400 1600h200v-1300q0 -124 -88 -212t-212 -88t-212 88t-88 212v1300h200v-1300q0 -41 29.5 -70.5t70.5 -29.5t70.5 29.5t29.5 70.5v1300zM250 1750h-300l400 400h300z" />
    <glyph glyph-name="Ucircumflex" unicode="&#xdb;" horiz-adv-x="800" 
d="M400 1600h200v-1300q0 -124 -88 -212t-212 -88t-212 88t-88 212v1300h200v-1300q0 -41 29.5 -70.5t70.5 -29.5t70.5 29.5t29.5 70.5v1300zM300 1950l-100 -200h-250l200 400h300l200 -400h-250z" />
    <glyph glyph-name="Udieresis" unicode="&#xdc;" horiz-adv-x="800" 
d="M400 1600h200v-1300q0 -124 -88 -212t-212 -88t-212 88t-88 212v1300h200v-1300q0 -41 29.5 -70.5t70.5 -29.5t70.5 29.5t29.5 70.5v1300zM100 1800q-41 0 -70.5 29.5t-29.5 70.5t29.5 70.5t70.5 29.5t70.5 -29.5t29.5 -70.5t-29.5 -70.5t-70.5 -29.5zM500 1800
q-41 0 -70.5 29.5t-29.5 70.5t29.5 70.5t70.5 29.5t70.5 -29.5t29.5 -70.5t-29.5 -70.5t-70.5 -29.5z" />
    <glyph glyph-name="Yacute" unicode="&#xdd;" horiz-adv-x="1000" 
d="M500 1000v-1000h-200v1000l-300 600h200l200 -400l200 400h200zM350 1750h-300l400 400h300z" />
    <glyph glyph-name="Thorn" unicode="&#xde;" 
d="M200 1168v-736q84 29 154 85q146 117 146 283t-146 283q-70 56 -154 85zM200 1377q165 -41 295 -152q205 -176 205 -425t-205 -424q-130 -112 -295 -153v-223h-200v1600h200v-223z" />
    <glyph glyph-name="germandbls" unicode="&#xdf;" horiz-adv-x="1200" 
d="M0 1200q0 166 117 283t283 117t283 -117t117 -283t-117 -283l-2 -2q38 -27 73 -61q146 -147 146 -354t-146.5 -353.5t-353.5 -146.5v200q124 0 212 88t88 212t-88 212t-212 88v200q83 0 141.5 58.5t58.5 141.5t-58.5 141.5t-141.5 58.5t-141.5 -58.5t-58.5 -141.5v-1200
h-200v1200z" />
    <glyph glyph-name="agrave" unicode="&#xe0;" 
d="M500 594q-103 -12 -183 -52q-117 -59 -117 -142t117 -141q80 -41 183 -53v388zM160 1072q7 6 16 11q175 117 424 117h100v-1200h-100q-249 0 -424.5 117t-175.5 283t176 283q139 93 324 112v199q-101 -12 -180 -50zM0 1800h300l400 -400h-300z" />
    <glyph glyph-name="aacute" unicode="&#xe1;" 
d="M500 594q-103 -12 -183 -52q-117 -59 -117 -142t117 -141q80 -41 183 -53v388zM160 1072q7 6 16 11q175 117 424 117h100v-1200h-100q-249 0 -424.5 117t-175.5 283t176 283q139 93 324 112v199q-101 -12 -180 -50zM300 1400h-300l400 400h300z" />
    <glyph glyph-name="acircumflex" unicode="&#xe2;" 
d="M500 594q-103 -12 -183 -52q-117 -59 -117 -142t117 -141q80 -41 183 -53v388zM160 1072q7 6 16 11q175 117 424 117h100v-1200h-100q-249 0 -424.5 117t-175.5 283t176 283q139 93 324 112v199q-101 -12 -180 -50zM350 1600l-100 -200h-250l200 400h300l200 -400h-250z
" />
    <glyph glyph-name="atilde" unicode="&#xe3;" 
d="M500 594q-103 -12 -183 -52q-117 -59 -117 -142t117 -141q80 -41 183 -53v388zM160 1072q7 6 16 11q175 117 424 117h100v-1200h-100q-249 0 -424.5 117t-175.5 283t176 283q139 93 324 112v199q-101 -12 -180 -50zM700 1800v-200q-50 -100 -100 -125t-100 -25t-150 50
t-150 50t-100 -25t-100 -125v200q50 100 100 125t100 25t150 -50t150 -50t100 25t100 125z" />
    <glyph glyph-name="adieresis" unicode="&#xe4;" 
d="M500 594q-103 -12 -183 -52q-117 -59 -117 -142t117 -141q80 -41 183 -53v388zM160 1072q7 6 16 11q175 117 424 117h100v-1200h-100q-249 0 -424.5 117t-175.5 283t176 283q139 93 324 112v199q-101 -12 -180 -50zM150 1400q-41 0 -70.5 29.5t-29.5 70.5t29.5 70.5
t70.5 29.5t70.5 -29.5t29.5 -70.5t-29.5 -70.5t-70.5 -29.5zM550 1400q-41 0 -70.5 29.5t-29.5 70.5t29.5 70.5t70.5 29.5t70.5 -29.5t29.5 -70.5t-29.5 -70.5t-70.5 -29.5z" />
    <glyph glyph-name="aring" unicode="&#xe5;" 
d="M500 594q-103 -12 -183 -52q-117 -59 -117 -142t117 -141q80 -41 183 -53v388zM160 1072q7 6 16 11q175 117 424 117h100v-1200h-100q-249 0 -424.5 117t-175.5 283t176 283q139 93 324 112v199q-101 -12 -180 -50zM350 1400q-41 0 -70.5 29.5t-29.5 70.5t29.5 70.5
t70.5 29.5t70.5 -29.5t29.5 -70.5t-29.5 -70.5t-70.5 -29.5z" />
    <glyph glyph-name="ae" unicode="&#xe6;" horiz-adv-x="1900" 
d="M500 594q-103 -12 -183 -52q-117 -59 -117 -142t117 -141q80 -41 183 -53v388zM712 700h776q-25 103 -105 183q-117 117 -283 117t-283 -117q-80 -80 -105 -183zM700 151v-151h-100q-249 0 -424.5 117t-175.5 283t176 283q139 93 324 112v199q-101 -12 -180 -50l-160 128
q7 6 16 11q175 117 424 117h100v-152q168 152 400 152q249 0 424.5 -175.5t175.5 -424.5v-100h-990q25 -103 105 -183q117 -117 283 -117t283 117l141 -142q-175 -175 -424 -175q-231 0 -398 151z" />
    <glyph glyph-name="ccedilla" unicode="&#xe7;" horiz-adv-x="800" 
d="M300 78q-66 39 -124 98q-176 175 -176 424t175.5 424.5t424.5 175.5v-200q-166 0 -283 -117t-117 -283t117 -283t283 -117v-200q-52 0 -100 8v-58q0 -145 -102.5 -247.5t-247.5 -102.5v200q62 0 106 44t44 106v128z" />
    <glyph glyph-name="egrave" unicode="&#xe8;" horiz-adv-x="1400" 
d="M212 700h776q-25 103 -105 183q-117 117 -283 117t-283 -117q-80 -80 -105 -183zM0 600q0 249 175.5 424.5t424.5 175.5t424.5 -175.5t175.5 -424.5v-100h-990q25 -103 105 -183q117 -117 283 -117t283 117l141 -142q-175 -175 -424 -175t-424 176q-139 139 -174 324v100
zM250 1800h300l400 -400h-300z" />
    <glyph glyph-name="eacute" unicode="&#xe9;" horiz-adv-x="1400" 
d="M212 700h776q-25 103 -105 183q-117 117 -283 117t-283 -117q-80 -80 -105 -183zM0 600q0 249 175.5 424.5t424.5 175.5t424.5 -175.5t175.5 -424.5v-100h-990q25 -103 105 -183q117 -117 283 -117t283 117l141 -142q-175 -175 -424 -175t-424 176q-139 139 -174 324v100
zM550 1400h-300l400 400h300z" />
    <glyph glyph-name="ecircumflex" unicode="&#xea;" horiz-adv-x="1400" 
d="M212 700h776q-25 103 -105 183q-117 117 -283 117t-283 -117q-80 -80 -105 -183zM0 600q0 249 175.5 424.5t424.5 175.5t424.5 -175.5t175.5 -424.5v-100h-990q25 -103 105 -183q117 -117 283 -117t283 117l141 -142q-175 -175 -424 -175t-424 176q-139 139 -174 324v100
zM600 1600l-100 -200h-250l200 400h300l200 -400h-250z" />
    <glyph glyph-name="edieresis" unicode="&#xeb;" horiz-adv-x="1400" 
d="M212 700h776q-25 103 -105 183q-117 117 -283 117t-283 -117q-80 -80 -105 -183zM0 600q0 249 175.5 424.5t424.5 175.5t424.5 -175.5t175.5 -424.5v-100h-990q25 -103 105 -183q117 -117 283 -117t283 117l141 -142q-175 -175 -424 -175t-424 176q-139 139 -174 324v100
zM400 1400q-41 0 -70.5 29.5t-29.5 70.5t29.5 70.5t70.5 29.5t70.5 -29.5t29.5 -70.5t-29.5 -70.5t-70.5 -29.5zM800 1400q-41 0 -70.5 29.5t-29.5 70.5t29.5 70.5t70.5 29.5t70.5 -29.5t29.5 -70.5t-29.5 -70.5t-70.5 -29.5z" />
    <glyph glyph-name="igrave" unicode="&#xec;" horiz-adv-x="400" 
d="M200 -1l-200 1v1200h200v-1201zM-250 1800h300l400 -400h-300z" />
    <glyph glyph-name="iacute" unicode="&#xed;" horiz-adv-x="400" 
d="M200 -1l-200 1v1200h200v-1201zM50 1400h-300l400 400h300z" />
    <glyph glyph-name="icircumflex" unicode="&#xee;" horiz-adv-x="400" 
d="M200 -1l-200 1v1200h200v-1201zM100 1600l-100 -200h-250l200 400h300l200 -400h-250z" />
    <glyph glyph-name="idieresis" unicode="&#xef;" horiz-adv-x="400" 
d="M200 -1l-200 1v1200h200v-1201zM-100 1400q-41 0 -70.5 29.5t-29.5 70.5t29.5 70.5t70.5 29.5t70.5 -29.5t29.5 -70.5t-29.5 -70.5t-70.5 -29.5zM300 1400q-41 0 -70.5 29.5t-29.5 70.5t29.5 70.5t70.5 29.5t70.5 -29.5t29.5 -70.5t-29.5 -70.5t-70.5 -29.5z" />
    <glyph glyph-name="eth" unicode="&#xf0;" horiz-adv-x="1100" 
d="M500 594q-103 -12 -183 -52q-117 -59 -117 -142t117 -141q80 -41 183 -53v388zM500 1000h-200v200h200v50q0 62 -44 106t-106 44v200q145 0 247.5 -102.5t102.5 -247.5v-50h200v-200h-200v-1000h-100q-249 0 -424.5 117t-175.5 283t176 283q139 93 324 112v205z" />
    <glyph glyph-name="ntilde" unicode="&#xf1;" 
d="M500 600q0 166 -146 283q-70 56 -154 85v-968h-200v1200q290 0 495 -175.5t205 -424.5v-600h-200v600zM700 1800v-200q-50 -100 -100 -125t-100 -25t-150 50t-150 50t-100 -25t-100 -125v200q50 100 100 125t100 25t150 -50t150 -50t100 25t100 125z" />
    <glyph glyph-name="ograve" unicode="&#xf2;" horiz-adv-x="1400" 
d="M600 0q-249 0 -424.5 175.5t-175.5 424.5t175.5 424.5t424.5 175.5t424.5 -175.5t175.5 -424.5t-175.5 -424.5t-424.5 -175.5zM883 317q117 117 117 283t-117 283t-283 117t-283 -117t-117 -283t117 -283t283 -117t283 117zM250 1800h300l400 -400h-300z" />
    <glyph glyph-name="oacute" unicode="&#xf3;" horiz-adv-x="1400" 
d="M600 0q-249 0 -424.5 175.5t-175.5 424.5t175.5 424.5t424.5 175.5t424.5 -175.5t175.5 -424.5t-175.5 -424.5t-424.5 -175.5zM883 317q117 117 117 283t-117 283t-283 117t-283 -117t-117 -283t117 -283t283 -117t283 117zM550 1400h-300l400 400h300z" />
    <glyph glyph-name="ocircumflex" unicode="&#xf4;" horiz-adv-x="1400" 
d="M600 0q-249 0 -424.5 175.5t-175.5 424.5t175.5 424.5t424.5 175.5t424.5 -175.5t175.5 -424.5t-175.5 -424.5t-424.5 -175.5zM883 317q117 117 117 283t-117 283t-283 117t-283 -117t-117 -283t117 -283t283 -117t283 117zM600 1600l-100 -200h-250l200 400h300
l200 -400h-250z" />
    <glyph glyph-name="otilde" unicode="&#xf5;" horiz-adv-x="1400" 
d="M600 0q-249 0 -424.5 175.5t-175.5 424.5t175.5 424.5t424.5 175.5t424.5 -175.5t175.5 -424.5t-175.5 -424.5t-424.5 -175.5zM883 317q117 117 117 283t-117 283t-283 117t-283 -117t-117 -283t117 -283t283 -117t283 117zM950 1800v-200q-50 -100 -100 -125t-100 -25
t-150 50t-150 50t-100 -25t-100 -125v200q50 100 100 125t100 25t150 -50t150 -50t100 25t100 125z" />
    <glyph glyph-name="odieresis" unicode="&#xf6;" horiz-adv-x="1400" 
d="M600 0q-249 0 -424.5 175.5t-175.5 424.5t175.5 424.5t424.5 175.5t424.5 -175.5t175.5 -424.5t-175.5 -424.5t-424.5 -175.5zM883 317q117 117 117 283t-117 283t-283 117t-283 -117t-117 -283t117 -283t283 -117t283 117zM400 1400q-41 0 -70.5 29.5t-29.5 70.5
t29.5 70.5t70.5 29.5t70.5 -29.5t29.5 -70.5t-29.5 -70.5t-70.5 -29.5zM800 1400q-41 0 -70.5 29.5t-29.5 70.5t29.5 70.5t70.5 29.5t70.5 -29.5t29.5 -70.5t-29.5 -70.5t-70.5 -29.5z" />
    <glyph glyph-name="divide" unicode="&#xf7;" horiz-adv-x="1014" 
d="M87 647v140h839l1 -1v-139h-840zM398 408l82 84q15 14 29 14q13 0 31 -16l80 -86q12 -16 12 -29q0 -15 -14 -31l-80 -88q-20 -20 -29 -20q-16 0 -29 14l-88 101q-10 13 -10 26q0 15 16 31zM398 1101l82 84q15 14 29 14q13 0 31 -16l80 -86q12 -16 12 -29q0 -15 -14 -31
l-80 -88q-20 -20 -29 -20q-16 0 -29 14l-88 101q-10 13 -10 26q0 15 16 31z" />
    <glyph glyph-name="oslash" unicode="&#xf8;" horiz-adv-x="1400" 
d="M765 966q-76 34 -165 34q-166 0 -283 -117t-117 -283q0 -139 82 -244zM435 234q76 -34 165 -34q166 0 283 117t117 283q0 139 -82 244zM1045 1004q155 -170 155 -404q0 -249 -175.5 -424.5t-424.5 -175.5q-161 0 -292 74l-58 -74h-250l155 196q-155 170 -155 404
q0 249 175.5 424.5t424.5 175.5q161 0 292 -74l58 74h250z" />
    <glyph glyph-name="ugrave" unicode="&#xf9;" horiz-adv-x="800" 
d="M400 1200h200v-900q0 -124 -88 -212t-212 -88t-212 88t-88 212v900h200v-900q0 -41 29.5 -70.5t70.5 -29.5t70.5 29.5t29.5 70.5v900zM-50 1800h300l400 -400h-300z" />
    <glyph glyph-name="uacute" unicode="&#xfa;" horiz-adv-x="800" 
d="M400 1200h200v-900q0 -124 -88 -212t-212 -88t-212 88t-88 212v900h200v-900q0 -41 29.5 -70.5t70.5 -29.5t70.5 29.5t29.5 70.5v900zM250 1400h-300l400 400h300z" />
    <glyph glyph-name="ucircumflex" unicode="&#xfb;" horiz-adv-x="800" 
d="M400 1200h200v-900q0 -124 -88 -212t-212 -88t-212 88t-88 212v900h200v-900q0 -41 29.5 -70.5t70.5 -29.5t70.5 29.5t29.5 70.5v900zM300 1600l-100 -200h-250l200 400h300l200 -400h-250z" />
    <glyph glyph-name="udieresis" unicode="&#xfc;" horiz-adv-x="800" 
d="M400 1200h200v-900q0 -124 -88 -212t-212 -88t-212 88t-88 212v900h200v-900q0 -41 29.5 -70.5t70.5 -29.5t70.5 29.5t29.5 70.5v900zM100 1400q-41 0 -70.5 29.5t-29.5 70.5t29.5 70.5t70.5 29.5t70.5 -29.5t29.5 -70.5t-29.5 -70.5t-70.5 -29.5zM500 1400
q-41 0 -70.5 29.5t-29.5 70.5t29.5 70.5t70.5 29.5t70.5 -29.5t29.5 -70.5t-29.5 -70.5t-70.5 -29.5z" />
    <glyph glyph-name="yacute" unicode="&#xfd;" 
d="M200 600q0 -166 147 -283q69 -56 153 -85v968h200v-1250q0 -145 -102.5 -247.5t-247.5 -102.5t-247.5 102.5t-102.5 247.5h200q0 -62 44 -106t106 -44t106 44t44 106v73q-165 41 -295 153q-205 175 -205 424v600h200v-600zM300 1400h-300l400 400h300z" />
    <glyph glyph-name="thorn" unicode="&#xfe;" 
d="M200 968v-736q84 29 154 85q146 117 146 283t-146 283q-70 56 -154 85zM200 1177q165 -41 295 -152q205 -176 205 -425t-205 -424q-130 -112 -295 -153v-423h-200v2000h200v-423z" />
    <glyph glyph-name="ydieresis" unicode="&#xff;" 
d="M200 600q0 -166 147 -283q69 -56 153 -85v968h200v-1250q0 -145 -102.5 -247.5t-247.5 -102.5t-247.5 102.5t-102.5 247.5h200q0 -62 44 -106t106 -44t106 44t44 106v73q-165 41 -295 153q-205 175 -205 424v600h200v-600zM150 1400q-41 0 -70.5 29.5t-29.5 70.5
t29.5 70.5t70.5 29.5t70.5 -29.5t29.5 -70.5t-29.5 -70.5t-70.5 -29.5zM550 1400q-41 0 -70.5 29.5t-29.5 70.5t29.5 70.5t70.5 29.5t70.5 -29.5t29.5 -70.5t-29.5 -70.5t-70.5 -29.5z" />
    <glyph glyph-name="circumflex" unicode="&#x2c6;" 
d="M350 1950l-100 -200h-250l200 400h300l200 -400h-250z" />
    <glyph glyph-name="tilde" unicode="&#x2dc;" 
d="M700 2150v-200q-50 -100 -100 -125t-100 -25t-150 50t-150 50t-100 -25t-100 -125v200q50 100 100 125t100 25t150 -50t150 -50t100 25t100 125z" />
    <glyph glyph-name="endash" unicode="&#x2013;" 
d="M0 1000h700v-200h-700v200z" />
    <glyph glyph-name="emdash" unicode="&#x2014;" horiz-adv-x="1100" 
d="M0 1000h900v-200h-900v200z" />
    <glyph glyph-name="quoteleft" unicode="&#x2018;" horiz-adv-x="400" 
d="M200 1600v-200q0 -41 -29.5 -70.5t-70.5 -29.5t-70.5 29.5t-29.5 70.5v100l100 100h100z" />
    <glyph glyph-name="quoteright" unicode="&#x2019;" horiz-adv-x="400" 
d="M0 1300v200q0 41 29.5 70.5t70.5 29.5t70.5 -29.5t29.5 -70.5v-100l-100 -100h-100z" />
    <glyph glyph-name="quotesinglbase" unicode="&#x201a;" horiz-adv-x="400" 
d="M0 -100v200q0 41 29.5 70.5t70.5 29.5t70.5 -29.5t29.5 -70.5v-100l-100 -100h-100z" />
    <glyph glyph-name="quotedblleft" unicode="&#x201c;" horiz-adv-x="700" 
d="M500 1600v-200q0 -41 -29.5 -70.5t-70.5 -29.5t-70.5 29.5t-29.5 70.5v100l100 100h100zM200 1600v-200q0 -41 -29.5 -70.5t-70.5 -29.5t-70.5 29.5t-29.5 70.5v100l100 100h100z" />
    <glyph glyph-name="quotedblright" unicode="&#x201d;" horiz-adv-x="700" 
d="M0 1300v200q0 41 29.5 70.5t70.5 29.5t70.5 -29.5t29.5 -70.5v-100l-100 -100h-100zM300 1300v200q0 41 29.5 70.5t70.5 29.5t70.5 -29.5t29.5 -70.5v-100l-100 -100h-100z" />
    <glyph glyph-name="quotedblbase" unicode="&#x201e;" horiz-adv-x="700" 
d="M0 -100v200q0 41 29.5 70.5t70.5 29.5t70.5 -29.5t29.5 -70.5v-100l-100 -100h-100zM300 -100v200q0 41 29.5 70.5t70.5 29.5t70.5 -29.5t29.5 -70.5v-100l-100 -100h-100z" />
    <glyph glyph-name="dagger" unicode="&#x2020;" horiz-adv-x="1014" 
d="M486 1022q-8 97 -54 178q-57 101 -57 129q0 49 36 78.5t96 29.5q57 0 94.5 -27.5t37.5 -71.5q0 -32 -55 -137q-46 -85 -55 -179q96 8 177 54q101 57 129 57q49 0 79 -36t30 -96q0 -57 -27.5 -94.5t-72.5 -37.5q-32 0 -136 55q-85 46 -179 57q8 -176 110 -277
q-106 -460 -112 -974h-38q-6 514 -114 974q102 101 111 277q-96 -10 -178 -55q-101 -57 -129 -57q-49 0 -78.5 36t-29.5 96q0 57 27.5 94.5t71.5 37.5q32 0 137 -56q85 -46 179 -55z" />
    <glyph glyph-name="daggerdbl" unicode="&#x2021;" horiz-adv-x="1014" 
d="M528 186q94 11 179 57q104 55 136 55q45 0 72.5 -37.5t27.5 -94.5q0 -60 -30 -96t-79 -36q-28 0 -129 57q-81 46 -177 54q9 -94 55 -179q55 -105 55 -137q0 -44 -37.5 -71.5t-94.5 -27.5q-60 0 -96 29.5t-36 78.5q0 28 57 129q46 81 54 178q-94 -9 -179 -55
q-105 -56 -137 -56q-44 0 -71.5 37.5t-27.5 94.5q0 60 29.5 96t78.5 36q28 0 129 -57q82 -45 178 -55q-9 226 -111 398q102 171 111 397q-96 -10 -178 -55q-101 -57 -129 -57q-49 0 -78.5 36t-29.5 96q0 57 27.5 94.5t71.5 37.5q32 0 137 -56q85 -46 179 -55q-8 97 -54 178
q-57 101 -57 129q0 49 36 78.5t96 29.5q57 0 94.5 -27.5t37.5 -71.5q0 -32 -55 -137q-46 -85 -55 -179q96 8 177 54q101 57 129 57q49 0 79 -36t30 -96q0 -57 -27.5 -94.5t-72.5 -37.5q-32 0 -136 55q-85 46 -179 57q8 -226 110 -397q-102 -172 -110 -398z" />
    <glyph glyph-name="bullet" unicode="&#x2022;" horiz-adv-x="1024" 
d="M216 718q0 123 87 209t210 86q122 0 208.5 -86.5t86.5 -208.5t-87.5 -209.5t-209.5 -87.5q-123 0 -209 87t-86 210z" />
    <glyph glyph-name="ellipsis" unicode="&#x2026;" horiz-adv-x="1000" 
d="M100 0q-41 0 -70.5 29.5t-29.5 70.5t29.5 70.5t70.5 29.5t70.5 -29.5t29.5 -70.5t-29.5 -70.5t-70.5 -29.5zM400 0q-41 0 -70.5 29.5t-29.5 70.5t29.5 70.5t70.5 29.5t70.5 -29.5t29.5 -70.5t-29.5 -70.5t-70.5 -29.5zM700 0q-41 0 -70.5 29.5t-29.5 70.5t29.5 70.5
t70.5 29.5t70.5 -29.5t29.5 -70.5t-29.5 -70.5t-70.5 -29.5z" />
    <glyph glyph-name="guilsinglleft" unicode="&#x2039;" horiz-adv-x="631" 
d="M174 479l342 303h14v-37l-205 -266l205 -266v-37h-14z" />
    <glyph glyph-name="guilsinglright" unicode="&#x203a;" horiz-adv-x="631" 
d="M115 176h-14v37l205 266l-205 266v37h14l342 -303z" />
    <glyph glyph-name="Euro" unicode="&#x20ac;" horiz-adv-x="1100" 
d="M292 1200q45 88 113 166q205 234 495 234v-200q-207 0 -353 -175q-11 -13 -20 -25h173v-200h-273q-27 -93 -27 -200h300v-200h-273q36 -124 120 -224q146 -176 353 -176v-200q-290 0 -495 235q-140 160 -184 365h-221v200h200q0 105 21 200h-221v200h292z" />
    <glyph glyph-name="trademark" unicode="&#x2122;" horiz-adv-x="1497" 
 />
  </font>
</defs>
</svg>
